<svg xmlns="http://www.w3.org/2000/svg" aria-hidden="true" style="position:absolute;width:0;height:0;overflow:hidden">
    <defs>
        <symbol id="icon-antenna" viewBox="0 0 32 32">
            <path
                d="m30.773 22.098-8.443-8.505.937-4.616c.225.09.485.144.758.146h.033a2.16 2.16 0 1 0-2.029-1.42l-.005-.015-4.96.606L8.973.161a.53.53 0 0 0-.376-.16.536.536 0 0 0-.373.155L6.712 1.66a.535.535 0 0 0 0 .754l.814.825C6.383 5.301 5.71 7.761 5.71 10.378c0 4.106 1.656 7.824 4.336 10.525l-.001-.001a.49.49 0 0 0 .146.097 2.986 2.986 0 0 0-.052.546v6.188h-6.4a2.669 2.669 0 0 0-2.667 2.666v1.067c0 .295.239.534.534.534H26.14a.534.534 0 0 0 .533-.534v-1.067a2.67 2.67 0 0 0-2.666-2.666h-6.4v-2.742a14.784 14.784 0 0 0 10.166-1.502l-.077.039.818.823a.534.534 0 0 0 .376.16.536.536 0 0 0 .373-.155l1.512-1.504a.535.535 0 0 0 0-.754zM23.28 6.233a1.067 1.067 0 1 1 .752 1.822h-.004a1.066 1.066 0 0 1-.747-1.822h-.002zm-1.256 3.504-.598 2.946-1.175-1.183 1.774-1.763zm-.605-.902-1.92 1.909-1.486-1.493 3.406-.416zM24.004 28.8a1.6 1.6 0 0 1 1.6 1.6v.534H2.138V30.4a1.6 1.6 0 0 1 1.6-1.6h20.267zm-7.466-2.134v1.067h-5.334v-1.067h5.334zM11.204 25.6v-4.053c0-1.294 1.196-2.346 2.667-2.346s2.667 1.053 2.667 2.346V25.6h-5.334zm6.4-1.696v-2.357c0-1.882-1.675-3.413-3.733-3.413h-.058c-1.353 0-2.54.707-3.213 1.771l-.009.016a13.817 13.817 0 0 1-3.812-9.55c0-2.314.567-4.496 1.569-6.414l-.036.077 18.602 18.709c-1.823.947-3.979 1.502-6.266 1.502-1.079 0-2.128-.124-3.136-.357l.093.018zm11.289-.684L7.836 2.039l.754-.752 7.935 7.98c.004 0 .006.007.01.01l13.114 13.191-.757.752z" />
            <path fill="#2196f3"
                d="M13.876 20.267h-.007a1.6 1.6 0 0 0-.003 3.2h.007a1.6 1.6 0 0 0 .002-3.2zm.373 1.978a.533.533 0 1 1-.378-.911.533.533 0 0 1 .374.911h.005z"
                style="fill:var(--color2, #2196f3)" />
        </symbol>
        <symbol id="icon-smartphone" viewBox="0 0 23 32">
            <path
                d="M19.429 0h-16C1.538 0 0 1.346 0 3v26c0 1.654 1.538 3 3.429 3h16c1.891 0 3.429-1.346 3.429-3V3c0-1.654-1.538-3-3.429-3zm-16 2h16c.631 0 1.143.448 1.143 1v21H2.286V3c0-.552.512-1 1.143-1zm16 28h-16c-.631 0-1.143-.448-1.143-1v-3h18.286v3c0 .552-.512 1-1.143 1z" />
            <path
                d="M5.38 27.293c.446.391.446 1.024 0 1.415s-1.17.391-1.616 0c-.446-.391-.446-1.024 0-1.415s1.17-.391 1.616 0z" />
        </symbol>
        <symbol id="icon-envelope" viewBox="0 0 45 32">
            <path
                d="M40.6 0H4.2C1.884 0 0 1.794 0 4v24c0 2.206 1.884 4 4.2 4h36.4c2.316 0 4.2-1.794 4.2-4V4c0-2.206-1.884-4-4.2-4zm0 2.667c.19 0 .371.038.537.103L22.4 18.236 3.663 2.77c.165-.066.346-.103.537-.103h36.4zm0 26.666H4.2c-.772 0-1.4-.598-1.4-1.333V5.587l18.683 15.421c.264.217.591.326.917.326s.654-.108.917-.326L42 5.587V28c0 .736-.628 1.333-1.4 1.333z" />
        </symbol>
        <symbol id="icon-menu" viewBox="0 0 32 32">
            <path d="M6.4 11.733V9.6h19.2v2.133H6.4zm0 5.334h19.2v-2.133H6.4v2.133zm0 5.333h19.2v-2.133H6.4V22.4z" />
        </symbol>
        <symbol id="icon-check" viewBox="0 0 42 32">
            <path
                d="M6.263 15.205l-0.22-0.21-3.307 3.132 11.651 11.114 24.477-23.351-3.285-3.134-21.192 20.197-8.124-7.75z">
            </path>
        </symbol>
        <symbol id="icon-close" viewBox="0 0 32 32">
            <path
                d="m26.667 7.303-1.97-1.97-7.808 7.808-7.808-7.808-1.97 1.97 7.808 7.808-7.808 7.808 1.97 1.97 7.808-7.808 7.808 7.808 1.97-1.97-7.808-7.808 7.808-7.808z" />
        </symbol>
        <symbol id="icon-email-black" viewBox="0 0 32 32">
            <path
                d="M26.667 5.333H5.334A2.663 2.663 0 0 0 2.681 8l-.013 16c0 1.467 1.2 2.667 2.667 2.667h21.333c1.467 0 2.667-1.2 2.667-2.667V8c0-1.467-1.2-2.667-2.667-2.667zM26.133 11l-9.427 5.893a1.346 1.346 0 0 1-1.413 0L5.866 11a1.132 1.132 0 1 1 1.2-1.92l8.933 5.587 8.933-5.587a1.132 1.132 0 1 1 1.2 1.92z" />
        </symbol>
        <symbol id="icon-phone-black" viewBox="0 0 32 32">
            <path
                d="m24.881 19.774-3.268-.373a2.561 2.561 0 0 0-2.11.733l-2.367 2.367a19.357 19.357 0 0 1-8.478-8.478l2.38-2.38a2.561 2.561 0 0 0 .733-2.11l-.373-3.242a2.575 2.575 0 0 0-2.56-2.277H6.612c-1.454 0-2.663 1.209-2.573 2.663.682 10.987 9.469 19.761 20.443 20.443 1.454.09 2.663-1.119 2.663-2.573v-2.226a2.55 2.55 0 0 0-2.264-2.547z" />
        </symbol>
        <symbol id="icon-person" viewBox="0 0 32 32">
            <path
                d="M16 16c2.947 0 5.333-2.387 5.333-5.333s-2.387-5.333-5.333-5.333c-2.947 0-5.333 2.387-5.333 5.333s2.387 5.333 5.333 5.333zM16 18.667c-3.56 0-10.667 1.787-10.667 5.333v1.333c0 0.733 0.6 1.333 1.333 1.333h18.667c0.733 0 1.333-0.6 1.333-1.333v-1.333c0-3.547-7.107-5.333-10.667-5.333z">
            </path>
        </symbol>
        <symbol id="icon-send" viewBox="0 0 32 32">
            <path
                d="M32 0l-32 18 10.227 3.788 15.773-14.788-11.998 16.186 0.010 0.004-0.012-0.004v8.814l5.735-6.691 7.265 2.691 5-28z">
            </path>
        </symbol>
        <symbol id="icon-Logo5" viewBox="0 0 57 32">
            <path
                d="M26.727 3.165c.123 0 .254.011.386.022l.039.003.039.002c.66.048 1.305.149 1.849.282V1.947a11.177 11.177 0 0 0-1.949-.311c-.25-.019-.516-.031-.788-.038h-.231a15.447 15.447 0 0 0-3.909.505l-.11.024a15.49 15.49 0 0 0-4.042 1.665v15.145l-.087.044a16.806 16.806 0 0 1 4.044-1.586l-.12.027a17.272 17.272 0 0 1 3.442-.537h.045c.188-.01.375-.015.568-.016v-1.551h-.012c-1.53.02-3.015.228-4.305.573a20.01 20.01 0 0 0-1.5.445l-.54.183V4.71l.23-.111-.09.039a15.039 15.039 0 0 1 5.699-1.47h-.001l.025-.001.024.001c.214-.011.43-.016.642-.016h.243c.112.003.224.005.336.012h.073zm2.688 1.561c.339.026.69.038 1.044.038a16.84 16.84 0 0 0 4.231-.554l-.117.026a16.9 16.9 0 0 0 4.043-1.587l-.087.044v14.875a15.559 15.559 0 0 1-4.042 1.665l-.11.024c-1.173.314-2.52.498-3.91.503h-.1c-1.02 0-2.01-.128-2.955-.368l.083.018V4.438c.229.053.466.102.706.142.394.067.81.115 1.214.145zm7.57.116-.54.181c-.496.167-.997.316-1.5.449-1.344.36-2.888.569-4.48.575h-.004c-.352 0-.676-.01-.989-.03l-.43-.028v12.148l.37.032c.342.03.696.045 1.052.045a14.371 14.371 0 0 0 3.631-.48l-.1.023a14.671 14.671 0 0 0 2.848-1.031l-.088.039.23-.111V4.842zM19.06 24.113a.794.794 0 0 0-.572-.243l-.03.001h.001-.012a.888.888 0 0 0-.34.067l.006-.002a.785.785 0 0 0-.442.444l-.002.005a.874.874 0 0 0-.062.335v2.023a.957.957 0 0 0 .079.415.808.808 0 0 0 .203.271.714.714 0 0 0 .277.144c.099.027.201.042.302.042a.854.854 0 0 0 .838-.851v-.226h-.53v.192c0 .06-.011.118-.032.171l.001-.003a.315.315 0 0 1-.077.114.367.367 0 0 1-.221.077.265.265 0 0 1-.247-.108l-.001-.001a.478.478 0 0 1-.071-.251v-.021.001-1.887a.643.643 0 0 1 .065-.302.27.27 0 0 1 .227-.124l.033.002h-.001.01c.092 0 .174.045.226.114l.001.001a.425.425 0 0 1 .088.26v.012-.001.175h.524v-.215a.958.958 0 0 0-.067-.352l.002.006a.838.838 0 0 0-.177-.285zm3.142-.022a.92.92 0 0 0-.917-.166.838.838 0 0 0-.483.443l-.002.005a.94.94 0 0 0-.077.392v1.94a.932.932 0 0 0 .077.397.77.77 0 0 0 .205.271.837.837 0 0 0 .279.171.914.914 0 0 0 .919-.172l-.001.001a.831.831 0 0 0 .199-.271.934.934 0 0 0 .077-.397v-1.958a.952.952 0 0 0-.08-.381l.002.006a.876.876 0 0 0-.199-.283zm-.247 2.615.001.03a.349.349 0 0 1-.106.251.388.388 0 0 1-.499 0h.001a.344.344 0 0 1-.106-.25c0-.011 0-.022.002-.032v.001-1.941l-.001-.03c0-.098.041-.187.106-.25a.388.388 0 0 1 .499 0h-.001a.344.344 0 0 1 .106.25l-.001.032v-.001 1.941zm4.374.867v-3.675h-.508l-.668 1.945h-.009l-.674-1.945h-.503v3.674h.525v-2.235h.01l.514 1.58h.262l.518-1.58h.01v2.235h.525zm2.982-3.416a.727.727 0 0 0-.297-.201 1.153 1.153 0 0 0-.361-.057h-.8v3.675h.524v-1.435h.269a.968.968 0 0 0 .473-.1.779.779 0 0 0 .286-.278l.002-.003a.893.893 0 0 0 .12-.32 2.56 2.56 0 0 0 .028-.385v-.035.002a2.107 2.107 0 0 0-.051-.525.789.789 0 0 0-.193-.338zm-.27 1.12a.45.45 0 0 1-.05.194l.001-.003a.3.3 0 0 1-.133.128l-.002.001a.525.525 0 0 1-.22.047l-.028-.001h.001-.239v-1.249h.27l.025-.001c.077 0 .149.017.214.048l-.003-.001a.299.299 0 0 1 .122.134l.001.002a.537.537 0 0 1 .046.205v.244c0 .085.005.174 0 .252h-.005zm2.75-1.378h-.429l-.81 3.675h.524l.154-.789h.714l.154.789h.523l-.829-3.675zm-.483 2.384.258-1.332h.01l.256 1.332h-.523zm3.865-.171h-.01l-.79-2.213h-.503v3.675h.523v-2.21h.011l.8 2.209h.493v-3.674h-.523v2.213zm3.199-2.213-.421 1.461h-.011l-.421-1.461h-.554l.719 2.122v1.553h.524v-1.553l.719-2.121h-.555zM17.6 28.611h.252v.708h.171v-.708h.251v-.145H17.6v.146zm2.121-.146-.331.853h.182l.07-.194h.34l.073.194h.187l-.339-.853h-.182zm-.027.516.116-.316.116.316h-.232zm2.124.023h.197v.11a.326.326 0 0 1-.203.072H21.8a.218.218 0 0 1-.169-.081.352.352 0 0 1-.063-.203l.001-.02v.001c0-.19.082-.285.245-.285l.018-.001a.18.18 0 0 1 .174.136v.001l.169-.033c-.036-.166-.156-.251-.362-.251h-.011a.43.43 0 0 0-.287.11.415.415 0 0 0-.123.329v-.001.02c0 .115.041.22.11.301l-.001-.001a.411.411 0 0 0 .297.126l.027-.001h-.001.014a.51.51 0 0 0 .348-.137v-.336h-.37v.144zm2.141-.539h-.173v.853h.597v-.145h-.425v-.708zm1.811 0h-.173v.853h.173v-.853zm1.769.57-.349-.57h-.167v.853h.16v-.557l.343.557h.172v-.853h-.158v.57zm1.601-.093h.425v-.145h-.425v-.187h.457v-.146h-.63v.853h.647v-.145h-.475v-.231zm3.88-.14h-.336v-.336h-.171v.853h.171v-.373h.336v.373h.172v-.853h-.172v.337zm1.609.14h.427v-.145h-.427v-.187h.459v-.146h-.629v.853h.646v-.145h-.475v-.231zm2.183.001c.149-.023.224-.102.224-.237l.001-.024a.205.205 0 0 0-.085-.166h-.001a.478.478 0 0 0-.216-.051l-.035.001h.002-.362v.853h.172v-.357h.048c.034 0 .066.007.094.02l-.001-.001a.181.181 0 0 1 .061.062l.186.271h.205l-.104-.166a.598.598 0 0 0-.187-.203l-.002-.001zm-.173-.118h-.126v-.214h.135l.036-.001c.049 0 .097.008.141.023l-.003-.001c.023.021.037.05.037.083a.114.114 0 0 1-.045.09.464.464 0 0 1-.142.021l-.033-.001h.002zm1.82.117h.425v-.145h-.425v-.187h.459v-.146h-.631v.853h.647v-.145h-.475v-.231z" />
        </symbol>
        <symbol id="icon-Logo4" viewBox="0 0 57 32">
            <path
                d="M28.662 15.122a1.732 1.732 0 0 1-.304-1.097v-1.591c0-.488.101-.858.303-1.112s.548-.38 1.039-.379c.462 0 .789.108.983.324.211.275.314.612.291.952v.374h-.826v-.379a2.097 2.097 0 0 0-.024-.371.363.363 0 0 0-.118-.22.448.448 0 0 0-.299-.086.472.472 0 0 0-.315.091.432.432 0 0 0-.137.243 1.92 1.92 0 0 0-.032.393v1.931c-.013.186.023.373.106.542.041.057.098.103.165.131s.14.039.213.03a.42.42 0 0 0 .292-.087.397.397 0 0 0 .123-.235c.019-.128.028-.257.026-.387v-.392h.826v.358c.023.354-.077.705-.285 1-.19.236-.513.354-.988.354s-.834-.126-1.038-.388zM32.099 15.138c-.209-.248-.313-.608-.313-1.086v-1.673c0-.473.104-.83.313-1.073s.557-.364 1.046-.362c.485 0 .832.121 1.041.362.209.243.315.6.315 1.073v1.673c0 .473-.106.835-.318 1.084s-.557.374-1.038.374-.836-.126-1.046-.372zm1.431-.401a1 1 0 0 0 .099-.495v-2.049a.987.987 0 0 0-.097-.486c-.042-.059-.1-.105-.169-.133s-.144-.038-.218-.028a.416.416 0 0 0-.388.162.964.964 0 0 0-.099.486v2.058a1 1 0 0 0 .099.495.524.524 0 0 0 .598.123.5.5 0 0 0 .174-.123v-.01zM35.494 10.992h.889l.668 3.087.684-3.087h.865l.087 4.456h-.639l-.068-3.097-.66 3.097h-.513l-.684-3.108-.063 3.108h-.646l.08-4.456zM39.683 10.992h1.385c.798 0 1.196.422 1.196 1.265 0 .808-.42 1.211-1.26 1.21h-.472v1.98h-.855l.005-4.456zm1.183 1.905a.599.599 0 0 0 .47-.14.774.774 0 0 0 .123-.503 1.536 1.536 0 0 0-.041-.405c-.012-.044-.034-.086-.063-.122s-.066-.067-.108-.09a.817.817 0 0 0-.381-.071h-.332v1.332h.332zM43.496 10.992h.918l.942 4.456h-.796l-.186-1.027h-.819l-.191 1.027h-.808l.942-4.456zm.785 2.913-.32-1.87-.32 1.87h.639zM46.117 10.992h.598l1.145 2.542v-2.542h.709v4.456H48l-1.152-2.654v2.654h-.733l.002-4.456zM50.231 13.749l-.952-2.751h.802l.581 1.767.545-1.767h.785l-.94 2.751v1.699h-.82v-1.699zM29.981 17.397v.233h-.697v1.811h-.292V17.63h-.701v-.233h1.691zM32.168 19.441h-.226a.098.098 0 0 1-.063-.019.109.109 0 0 1-.038-.047l-.202-.485h-.968l-.202.485a.137.137 0 0 1-.031.055.094.094 0 0 1-.063.019h-.226l.855-2.044h.297l.865 2.036zm-1.416-.759h.807l-.342-.832a1.611 1.611 0 0 1-.063-.193l-.032.108-.031.086-.338.83zM33.641 19.24a.914.914 0 0 0 .298-.024c.042-.01.083-.022.123-.037.038-.015.075-.032.115-.05v-.46h-.342c-.008 0-.017-.001-.025-.004s-.015-.007-.021-.013c-.006-.005-.01-.01-.013-.017s-.004-.013-.004-.02v-.157h.663v.783a1.196 1.196 0 0 1-.361.167c-.07.019-.141.034-.214.042a2.313 2.313 0 0 1-.25.013 1.216 1.216 0 0 1-.431-.076.975.975 0 0 1-.562-.538 1.1 1.1 0 0 1-.079-.424c-.002-.146.024-.29.077-.427a.946.946 0 0 1 .562-.536c.146-.052.302-.078.458-.076.08 0 .159.006.238.018a1.08 1.08 0 0 1 .374.133c.052.032.102.068.149.107l-.082.126c-.006.012-.016.021-.028.028s-.025.011-.039.011a.11.11 0 0 1-.053-.016.891.891 0 0 1-.084-.049.703.703 0 0 0-.114-.055.968.968 0 0 0-.374-.063.924.924 0 0 0-.33.057.7.7 0 0 0-.41.416c-.076.221-.076.46 0 .681a.724.724 0 0 0 .171.257c.07.07.155.125.25.162a.88.88 0 0 0 .338.04zM36.365 19.207h.933v.233h-1.219v-2.044h.292l-.007 1.811zM38.27 19.44h-.292v-2.044h.292v2.044zM39.357 17.406a.143.143 0 0 1 .044.037l1.249 1.541a.445.445 0 0 1 0-.073v-1.522h.255v2.052h-.147a.122.122 0 0 1-.063-.011.157.157 0 0 1-.046-.039l-1.248-1.539v1.589h-.244v-2.044h.152c.016 0 .033.003.048.01zM43.057 17.397v.225h-1.036v.675h.839v.217h-.839v.698h1.036v.225H41.72v-2.039h1.337zM12.429 4.775l12.979 3.489v12.225l-12.979-3.487V4.775zm-.833-1.042v13.863l14.642 3.937V7.672L11.596 3.733z" />
            <path
                d="M19.443 27.968 4.8 24.028V10.167l14.643 3.939v13.863zM11.839 4.618l12.809 3.445-5.448 5.159L6.389 9.775l5.449-5.157zm-.243-.885L4.8 10.167l14.643 3.938 6.794-6.434-14.642-3.938zM20.267 27.188l5.971-5.654-5.971-1.607v7.26z" />
        </symbol>
        <symbol id="icon-Logo3" viewBox="0 0 57 32">
            <path
                d="M14.66 24.148a.836.836 0 0 1 .185.539.851.851 0 0 1-.286.681 1.235 1.235 0 0 1-.831.249h-1.461v-3.416h1.431c.283-.019.563.061.793.227a.787.787 0 0 1 .278.639.798.798 0 0 1-.166.522.775.775 0 0 1-.435.267.834.834 0 0 1 .494.292zm-1.714-.516h.612c.139.01.277-.03.389-.113a.419.419 0 0 0 .131-.334.413.413 0 0 0-.13-.333.588.588 0 0 0-.401-.115h-.602v.896zm1.061 1.31a.421.421 0 0 0 .145-.348.433.433 0 0 0-.148-.35.634.634 0 0 0-.416-.124h-.642v.94h.65a.65.65 0 0 0 .411-.118zM17.585 25.617l-.796-1.335h-.299v1.335h-.685v-3.416h1.296c.327-.023.65.081.902.29a1.089 1.089 0 0 1 .096 1.414c-.16.184-.378.307-.618.347l.848 1.365h-.745zm-1.095-1.801h.56c.389 0 .583-.172.583-.517a.522.522 0 0 0-.143-.384.607.607 0 0 0-.44-.139h-.567l.007 1.04zM21.328 24.929h-1.365l-.241.688h-.718l1.253-3.378h.776l1.248 3.378h-.718l-.236-.688zm-.183-.517-.499-1.442-.499 1.442h.997zM26.014 25.617h-.68l-1.524-2.323v2.323h-.678v-3.416h.678l1.524 2.336v-2.336h.68v3.416zM29.893 24.799a1.469 1.469 0 0 1-.615.602c-.296.15-.624.224-.956.215h-1.21V22.2h1.21a2.03 2.03 0 0 1 .956.21c.26.132.475.339.615.596a1.993 1.993 0 0 1 0 1.792zm-.778-.082a1.255 1.255 0 0 0 0-1.63 1.175 1.175 0 0 0-.851-.29h-.472v2.211h.472c.311.02.616-.085.851-.29zM21.754 3.2s8.774 3.326 8.588 8.139v8.14s-8.768-3.328-8.585-8.14L21.754 3.2zM38.159 17.573a11.999 11.999 0 0 1 5.575-2.063v-2.548a11.454 11.454 0 0 0-5.575 4.611z" />
            <path
                d="M37.163 18.341a11.935 11.935 0 0 1 6.57-5.912V5.086S31.237 9.824 31.502 16.677v11.59s.557-.212 1.433-.609c0-.37 0-.744.04-1.12a12.058 12.058 0 0 1 4.188-8.197z" />
            <path
                d="M35.975 22.646c.066-.804.212-1.599.437-2.373a11.221 11.221 0 0 0-2.646 7.001c.71-.342 1.536-.769 2.403-1.272a12.035 12.035 0 0 1-.194-3.356zM36.472 22.688a11.511 11.511 0 0 0 .155 3.039c3.414-2.051 7.25-5.22 7.102-9.05v-.334a11.187 11.187 0 0 0-6.495 3.047 11.463 11.463 0 0 0-.761 3.298z" />
        </symbol>
        <symbol id="icon-Logo2" viewBox="0 0 57 32">
            <path
                d="M13.548 11.643h-.001c-1.207 0-2.185.953-2.185 2.129v.001c0 1.176.978 2.129 2.185 2.129h.001c1.207 0 2.185-.953 2.185-2.129v-.001c0-1.176-.978-2.129-2.185-2.129zM29.673 10.962c-.003-1.633-.671-3.198-1.855-4.353S25.027 4.804 23.351 4.8c-1.676.003-3.283.653-4.469 1.808s-1.853 2.721-1.856 4.354v9.006s12.646-1.373 12.647-9.004v-.001zM6.933 22.924c.003 1.136.468 2.225 1.292 3.029s1.942 1.257 3.108 1.26c1.166-.003 2.283-.456 3.107-1.259s1.289-1.892 1.292-3.028V16.66s-8.799.956-8.799 6.265zm4.4 1.123c-.228 0-.451-.066-.64-.189s-.337-.299-.424-.504a1.102 1.102 0 0 1 .249-1.224c.161-.157.366-.264.59-.307s.455-.021.666.064c.21.085.39.229.517.413a1.099 1.099 0 0 1 .108 1.055 1.136 1.136 0 0 1-.623.61c-.14.056-.29.086-.442.086v-.004zM20.314 23.35h-.9v.93h-.469v-2.275h1.481v.38h-1.012v.588h.9v.378zm2.253-.156c0 .224-.04.42-.119.589a.893.893 0 0 1-.847.528c-.189 0-.357-.045-.505-.136s-.262-.22-.344-.387a1.344 1.344 0 0 1-.123-.581v-.112c0-.224.04-.421.12-.591a.895.895 0 0 1 .848-.529c.189 0 .358.046.505.137a.888.888 0 0 1 .342.392c.081.17.122.366.122.589v.102zm-.475-.103c0-.238-.043-.42-.128-.544s-.207-.186-.366-.186a.416.416 0 0 0-.364.184c-.085.122-.129.301-.13.538v.111c0 .232.043.412.128.541s.208.192.369.192a.415.415 0 0 0 .363-.184c.084-.124.127-.304.128-.541v-.111zm1.996.592a.237.237 0 0 0-.094-.203 1.203 1.203 0 0 0-.337-.15 2.418 2.418 0 0 1-.386-.156c-.258-.14-.387-.328-.387-.564 0-.123.034-.232.103-.328a.688.688 0 0 1 .298-.227c.13-.054.276-.081.438-.081.163 0 .307.03.434.089a.662.662 0 0 1 .401.614h-.469a.306.306 0 0 0-.098-.242.405.405 0 0 0-.277-.088.426.426 0 0 0-.267.073.225.225 0 0 0-.095.191c0 .074.037.136.111.186.075.05.185.097.33.141.267.08.461.18.583.298s.183.267.183.444a.55.55 0 0 1-.223.464c-.149.111-.349.167-.602.167-.175 0-.334-.032-.478-.095-.144-.065-.254-.153-.33-.264s-.113-.241-.113-.388h.47c0 .251.15.377.45.377a.442.442 0 0 0 .261-.067.222.222 0 0 0 .094-.191zm2.501-1.299h-.697v1.895h-.469v-1.895h-.687v-.38h1.853v.38zm1.638.91h-.9v.609h1.056v.377h-1.525v-2.275h1.522v.38h-1.053v.542h.9v.367zm1.273.153h-.373v.833h-.469v-2.275h.845c.269 0 .476.06.622.18s.219.289.219.508a.697.697 0 0 1-.102.389.689.689 0 0 1-.305.247l.492.93v.022h-.503l-.427-.833zm-.373-.38h.378c.118 0 .209-.03.273-.089a.321.321 0 0 0 .097-.248.343.343 0 0 0-.092-.253c-.06-.061-.154-.092-.28-.092h-.377v.683zm2.84.411v.802h-.469v-2.275h.887c.171 0 .321.031.45.094a.703.703 0 0 1 .405.659.655.655 0 0 1-.23.528c-.152.128-.363.192-.633.192h-.411zm0-.38h.419c.124 0 .218-.029.283-.088.066-.058.098-.142.098-.25 0-.111-.033-.202-.098-.27s-.156-.104-.272-.106h-.43v.714zm2.966.196h-.9v.609h1.056v.377h-1.525v-2.275h1.522v.38h-1.053v.542h.9v.367zm2.175-.91h-.697v1.895h-.469v-1.895h-.688v-.38h1.853v.38zm1.638.91h-.9v.609h1.056v.377h-1.525v-2.275h1.522v.38h-1.053v.542h.9v.367zm1.273.153h-.373v.833h-.469v-2.275h.845c.269 0 .476.06.622.18s.219.289.219.508a.697.697 0 0 1-.102.389.689.689 0 0 1-.305.247l.492.93v.022h-.503l-.427-.833zm-.373-.38h.378c.118 0 .209-.03.273-.089a.321.321 0 0 0 .097-.248.343.343 0 0 0-.092-.253c-.06-.061-.154-.092-.28-.092h-.377v.683zm2.754.616a.237.237 0 0 0-.094-.203 1.203 1.203 0 0 0-.337-.15 2.418 2.418 0 0 1-.386-.156c-.258-.14-.388-.328-.388-.564 0-.123.034-.232.103-.328a.688.688 0 0 1 .298-.227c.13-.054.276-.081.438-.081.163 0 .307.03.434.089a.654.654 0 0 1 .401.614H42.4a.306.306 0 0 0-.098-.242.405.405 0 0 0-.277-.088.426.426 0 0 0-.267.073.225.225 0 0 0-.095.191c0 .074.037.136.111.186.075.05.185.097.33.141.267.08.461.18.583.298s.183.267.183.444a.548.548 0 0 1-.223.464c-.149.111-.349.167-.602.167-.175 0-.334-.032-.478-.095a.773.773 0 0 1-.33-.264.678.678 0 0 1-.112-.388h.47c0 .251.15.377.45.377a.442.442 0 0 0 .261-.067.222.222 0 0 0 .094-.191z" />
        </symbol>
        <symbol id="icon-Logo1" viewBox="0 0 57 32">
            <path
                d="M20.451 27.09a.06.06 0 0 1 .042.018l.11.115a.89.89 0 0 1-.309.218 1.107 1.107 0 0 1-.438.078 1.073 1.073 0 0 1-.412-.073.884.884 0 0 1-.51-.526 1.147 1.147 0 0 1-.07-.409c-.002-.14.024-.279.075-.41a.945.945 0 0 1 .213-.319.984.984 0 0 1 .329-.208c.135-.05.279-.075.424-.073.135-.003.268.02.394.067.109.045.208.107.295.184l-.092.123a.08.08 0 0 1-.023.022.06.06 0 0 1-.037.009.082.082 0 0 1-.04-.013l-.049-.033-.069-.042a.758.758 0 0 0-.38-.087.815.815 0 0 0-.305.055.701.701 0 0 0-.239.154.722.722 0 0 0-.155.246.878.878 0 0 0-.056.324.9.9 0 0 0 .056.329c.034.09.085.173.152.244a.634.634 0 0 0 .228.152.76.76 0 0 0 .283.052c.056.001.112-.003.167-.01a.622.622 0 0 0 .362-.169.083.083 0 0 1 .052-.021zM23.62 26.512c.002.139-.023.276-.074.407-.045.118-.115.226-.207.316s-.202.161-.324.207a1.22 1.22 0 0 1-.834 0 .932.932 0 0 1-.53-.527 1.153 1.153 0 0 1 0-.814.966.966 0 0 1 .208-.32.959.959 0 0 1 .322-.2c.268-.099.566-.099.834 0a.953.953 0 0 1 .324.208c.09.091.161.198.207.315.051.131.076.27.074.409zm-.288 0a.937.937 0 0 0-.052-.327.642.642 0 0 0-.379-.398.889.889 0 0 0-.606 0 .65.65 0 0 0-.38.398c-.07.213-.07.441 0 .654a.64.64 0 0 0 .38.397.9.9 0 0 0 .606 0 .648.648 0 0 0 .379-.397.934.934 0 0 0 .052-.327zM25.782 26.855l.029.073.032-.073a.604.604 0 0 1 .036-.072l.701-1.214c.014-.021.026-.034.04-.038a.162.162 0 0 1 .058-.006h.207V27.5h-.246v-1.513a.771.771 0 0 1 0-.068l-.705 1.231a.11.11 0 0 1-.101.061h-.04c-.021 0-.042-.005-.06-.016s-.032-.027-.041-.045l-.726-1.239V27.497h-.237v-1.971h.207a.191.191 0 0 1 .058.006.074.074 0 0 1 .038.038l.716 1.215a.43.43 0 0 1 .036.071zM28.42 26.757v.74h-.274v-1.972h.612c.116-.002.231.012.342.043a.649.649 0 0 1 .241.123c.061.053.108.12.137.193a.66.66 0 0 1-.004.504.54.54 0 0 1-.148.197.682.682 0 0 1-.243.131 1.085 1.085 0 0 1-.331.046l-.332-.005zm0-.212h.332a.699.699 0 0 0 .213-.03.447.447 0 0 0 .154-.085.346.346 0 0 0 .093-.131.413.413 0 0 0 .033-.166c.003-.055-.006-.11-.028-.161s-.054-.097-.096-.135a.55.55 0 0 0-.369-.106h-.332v.813zM32.107 27.499h-.217a.097.097 0 0 1-.06-.018.116.116 0 0 1-.036-.046l-.187-.477h-.937l-.193.477a.102.102 0 0 1-.096.064h-.217l.823-1.975h.285l.834 1.975zm-1.358-.733h.774l-.326-.804a1.309 1.309 0 0 1-.062-.186l-.032.103c-.01.031-.021.06-.03.084l-.324.802zM33.292 25.534a.127.127 0 0 1 .041.035l1.2 1.489v-1.532h.246v1.975h-.137a.11.11 0 0 1-.056-.012.143.143 0 0 1-.044-.037l-1.199-1.487a.771.771 0 0 1 0 .068v1.468h-.246v-1.975h.145c.017 0 .034.003.049.009zM36.801 26.714v.784h-.274v-.784l-.759-1.189h.246a.095.095 0 0 1 .059.017.192.192 0 0 1 .037.044l.475.767a.739.739 0 0 1 .083.175l.036-.085a.642.642 0 0 1 .047-.09l.468-.772a.236.236 0 0 1 .036-.042.083.083 0 0 1 .059-.02h.248l-.76 1.195zM25.646 22.21c.119.014.24.026.362.037 1.851-.789 3.417-2.08 4.502-3.712s1.641-3.533 1.599-5.464l-2.04-1.943c.415 2.056.221 4.182-.56 6.14s-2.118 3.669-3.862 4.944z" />
            <path
                d="m24.917 22.12.055.01c1.864-1.27 3.284-3.043 4.079-5.091s.926-4.275.377-6.394l-2.905-2.768c1.175 2.275 1.648 4.822 1.364 7.343s-1.314 4.914-2.969 6.9zM34.771 15.353c-.494 2.122-1.692 4.036-3.419 5.458-.504.417-1.048.789-1.624 1.111 1.406-.394 2.697-1.089 3.776-2.034s1.915-2.112 2.445-3.413l-1.178-1.121z" />
            <path
                d="m34.309 15.04-1.678-1.598c-.032 1.822-.576 3.603-1.575 5.158s-2.417 2.826-4.106 3.681h.008c.376 0 .752-.022 1.126-.064 1.579-.614 2.973-1.59 4.059-2.843s1.83-2.741 2.165-4.334zM25.16 6.71l-2.002-1.909c-1.789.659-3.328 1.817-4.415 3.322s-1.672 3.289-1.677 5.117c.007 2.019.72 3.979 2.027 5.568s3.133 2.718 5.19 3.208c1.836-2.131 2.91-4.764 3.068-7.516s-.61-5.481-2.191-7.79zM38.933 14.746c-.007-2.396-1.009-4.692-2.788-6.386s-4.188-2.649-6.703-2.656a9.796 9.796 0 0 0-3.398.603l12.254 11.675a8.557 8.557 0 0 0 .634-3.236z" />
        </symbol>
        <symbol id="icon-Logo" viewBox="0 0 57 32">
            <path d="m19.733 2.667 3.897 3.69h10.872v10.292l3.897 3.69V2.668H19.732z" />
            <path
                d="M16.533 6.201v17.166h18.133v-6.824L23.745 6.204 16.533 6.2zm14.679 14.655h-11.81V9.311h.835v10.764h10.975v.782zM21.755 26.551l.436-.898h.365l-.635 1.198v.698h-.331v-.698l-.637-1.198h.366l.436.898zm1.873.556h-.734l-.154.441h-.342l.716-1.896h.296l.717 1.896h-.344l-.155-.441zm-.642-.265h.549l-.275-.786-.275.786zm1.94.195c0-.088.024-.168.072-.241s.142-.161.283-.262c-.074-.093-.125-.172-.155-.237s-.043-.128-.043-.189c0-.148.045-.266.135-.352s.212-.13.365-.13c.138 0 .251.041.339.122s.133.181.133.301c0 .079-.02.152-.06.219s-.105.132-.197.198l-.129.094.366.432a.755.755 0 0 0 .079-.348h.275a.95.95 0 0 1-.164.574l.279.329h-.367l-.107-.126c-.135.102-.297.152-.484.152s-.338-.049-.451-.148a.498.498 0 0 1-.168-.389zm.627.285a.48.48 0 0 0 .299-.107l-.414-.488-.04.029c-.104.079-.156.169-.156.271 0 .088.028.159.085.214s.132.082.227.082zm-.174-1.221c0 .073.045.164.134.275l.145-.099.04-.033a.235.235 0 0 0 .081-.184c0-.049-.019-.092-.056-.126s-.085-.053-.142-.053c-.062 0-.111.021-.147.063s-.055.094-.055.158zm3.444.831c-.019.202-.094.36-.224.474s-.303.169-.52.169a.7.7 0 0 1-.666-.413 1.1 1.1 0 0 1-.098-.46v-.177c0-.179.032-.336.095-.473a.713.713 0 0 1 .683-.426c.209 0 .378.057.505.171s.202.274.223.482h-.328c-.016-.136-.056-.234-.12-.294s-.157-.091-.28-.091c-.143 0-.253.053-.331.158s-.115.257-.117.46v.168c0 .205.036.361.109.469s.181.161.323.161c.129 0 .227-.029.292-.087s.106-.155.124-.29h.328zm1.809-.282c0 .186-.032.349-.096.49a.725.725 0 0 1-.687.435c-.154 0-.291-.037-.411-.112s-.213-.183-.279-.322a1.136 1.136 0 0 1-.099-.48v-.107c0-.185.033-.348.098-.49a.726.726 0 0 1 .688-.437.725.725 0 0 1 .687.432c.065.139.098.301.099.486v.105zm-.33-.099c0-.21-.04-.371-.12-.483s-.191-.168-.337-.168c-.142 0-.254.056-.335.168s-.121.269-.122.473v.109c0 .208.04.369.121.483s.194.171.339.171c.146 0 .258-.056.336-.167s.119-.273.119-.487v-.099z" />
        </symbol>
        <symbol id="icon-linkedin" viewBox="0 0 32 32">
            <path
                d="M31.992 32v-.001H32V20.263c0-5.741-1.236-10.164-7.948-10.164-3.227 0-5.392 1.771-6.276 3.449h-.093v-2.913h-6.364v21.364h6.627V21.42c0-2.785.528-5.479 3.977-5.479 3.399 0 3.449 3.179 3.449 5.657v10.401h6.62zM.528 10.636h6.635V32H.528V10.636zM3.843 0C1.722 0 0 1.721 0 3.843s1.721 3.879 3.843 3.879c2.121 0 3.843-1.757 3.843-3.879A3.846 3.846 0 0 0 3.843 0z" />
        </symbol>
        <symbol id="icon-facebook" viewBox="0 0 32 32">
            <path
                d="M21.329 5.313h2.921V.225C23.746.156 22.013 0 19.994 0c-4.212 0-7.097 2.649-7.097 7.519V12H8.249v5.688h4.648V32h5.699V17.689h4.46l.708-5.688h-5.169V8.082c.001-1.644.444-2.769 2.735-2.769z" />
        </symbol>
        <symbol id="icon-twitter" viewBox="0 0 32 32">
            <path
                d="M32 6.078c-1.19.522-2.458.868-3.78 1.036a6.523 6.523 0 0 0 2.886-3.626 13.11 13.11 0 0 1-4.16 1.588A6.574 6.574 0 0 0 22.154 3c-3.632 0-6.556 2.948-6.556 6.562 0 .52.044 1.02.152 1.496-5.454-.266-10.28-2.88-13.522-6.862a6.605 6.605 0 0 0-.898 3.316 6.57 6.57 0 0 0 2.914 5.452 6.479 6.479 0 0 1-2.964-.808v.072c0 3.188 2.274 5.836 5.256 6.446a6.548 6.548 0 0 1-1.72.216 5.8 5.8 0 0 1-1.242-.112c.85 2.598 3.262 4.508 6.13 4.57a13.182 13.182 0 0 1-8.134 2.798c-.538 0-1.054-.024-1.57-.09A18.469 18.469 0 0 0 10.064 29c12.072 0 18.672-10 18.672-18.668 0-.29-.01-.57-.024-.848A13.087 13.087 0 0 0 32 6.078z" />
        </symbol>
        <symbol id="icon-instagram" viewBox="0 0 32 32">
            <path
                d="M31.969 9.408c-.075-1.7-.35-2.869-.744-3.882a7.806 7.806 0 0 0-1.851-2.838A7.867 7.867 0 0 0 26.542.844C25.523.45 24.36.175 22.66.1 20.947.019 20.403 0 16.059 0s-4.888.019-6.595.094c-1.7.075-2.869.35-3.882.744a7.803 7.803 0 0 0-2.838 1.85A7.867 7.867 0 0 0 .9 5.52C.506 6.539.231 7.702.156 9.402c-.081 1.713-.1 2.257-.1 6.601s.019 4.888.094 6.595c.075 1.7.35 2.869.744 3.882a7.895 7.895 0 0 0 1.85 2.838 7.867 7.867 0 0 0 2.832 1.844c1.019.394 2.182.669 3.882.744 1.706.075 2.25.094 6.595.094s4.888-.019 6.595-.094c1.7-.075 2.869-.35 3.882-.744a8.184 8.184 0 0 0 4.682-4.682c.394-1.019.669-2.182.744-3.882.075-1.707.094-2.251.094-6.595s-.006-4.888-.081-6.595zm-2.882 13.065c-.069 1.563-.331 2.407-.55 2.969a5.31 5.31 0 0 1-3.038 3.038c-.563.219-1.413.481-2.969.55-1.688.075-2.194.094-6.464.094s-4.782-.019-6.464-.094c-1.563-.069-2.407-.331-2.969-.55a4.926 4.926 0 0 1-1.838-1.194 4.974 4.974 0 0 1-1.194-1.838c-.219-.563-.481-1.413-.55-2.969-.075-1.688-.094-2.194-.094-6.464s.019-4.782.094-6.464c.069-1.563.331-2.407.55-2.969a4.868 4.868 0 0 1 1.2-1.838A4.974 4.974 0 0 1 6.639 3.55c.563-.219 1.413-.481 2.969-.55 1.688-.075 2.194-.094 6.464-.094 4.276 0 4.782.019 6.464.094 1.563.069 2.407.331 2.969.55a4.914 4.914 0 0 1 1.838 1.194 4.974 4.974 0 0 1 1.194 1.838c.219.563.481 1.413.55 2.969.075 1.688.094 2.194.094 6.464s-.019 4.77-.094 6.458z" />
            <path
                d="M16.059 7.783c-4.538 0-8.22 3.682-8.22 8.22s3.682 8.22 8.22 8.22c4.539 0 8.22-3.682 8.22-8.22s-3.682-8.22-8.22-8.22zm0 13.552a5.333 5.333 0 0 1 0-10.664 5.333 5.333 0 0 1 0 10.664zM26.524 7.458a1.919 1.919 0 1 1-3.838 0 1.919 1.919 0 0 1 3.838 0z" />
        </symbol>
        <symbol id="icon-astronaut" viewBox="0 0 32 32">
            <path fill="#2196f3"
                d="M31.974 4.524a.534.534 0 0 0-.43-.363l-1.91-.278-.855-1.731c-.179-.365-.777-.365-.956 0l-.855 1.731-1.91.278a.535.535 0 0 0-.296.91l1.383 1.348-.326 1.903c-.034.2.048.402.212.522a.53.53 0 0 0 .562.04l1.709-.899 1.709.899a.536.536 0 0 0 .775-.563l-.326-1.903 1.383-1.348a.536.536 0 0 0 .135-.547zm-2.463 1.327a.534.534 0 0 0-.153.472l.191 1.114-1-.526a.533.533 0 0 0-.498 0l-1.001.526.191-1.114a.534.534 0 0 0-.153-.472l-.81-.789 1.119-.163a.532.532 0 0 0 .402-.292l.5-1.013.5 1.013a.535.535 0 0 0 .402.292l1.119.163-.809.789zM26.133 20.522h-1.067v1.067h1.067v-1.067zM26.133 22.656h-1.067v1.067h1.067v-1.067zM27.2 21.589h-1.067v1.067H27.2v-1.067zM25.067 21.589H24v1.067h1.067v-1.067zM22.4 26.389h-1.067v1.067H22.4v-1.067zM22.4 28.522h-1.067v1.067H22.4v-1.067zM23.467 27.456H22.4v1.067h1.067v-1.067zM21.333 27.456h-1.067v1.067h1.067v-1.067zM16 24.256h-1.067v1.067H16v-1.067zM16 26.389h-1.067v1.067H16v-1.067zM17.067 25.322H16v1.067h1.067v-1.067zM14.933 25.322h-1.067v1.067h1.067v-1.067zM5.866 6.122H4.799v1.067h1.067V6.122zM5.866 8.255H4.799v1.067h1.067V8.255z"
                style="fill:var(--color2, #2196f3)" />
            <path fill="#2196f3" d="M6.933 7.189H5.866v1.067h1.067V7.189zM4.8 7.189H3.733v1.067H4.8V7.189z"
                style="fill:var(--color2, #2196f3)" />
            <path
                d="M24.715 14.159a1.775 1.775 0 0 0-1.188-.705 1.778 1.778 0 0 0-1.34.352l-1.252.96-1.898 1.417-1.358-.541c2.421-1.086 4.114-3.508 4.114-6.32 0-3.823-3.123-6.933-6.961-6.933s-6.961 3.11-6.961 6.933a6.86 6.86 0 0 0 1.12 3.758l-2.764-.024h-.005c-.009 0-.015.004-.023.005a.515.515 0 0 0-.155.031l-.038.013c-.006.003-.013.003-.019.006l-3.233 1.596-.001.001-1.893.911a.397.397 0 0 0-.063.035 1.779 1.779 0 0 0-.598 2.295c.22.429.595.745 1.056.889a1.776 1.776 0 0 0 1.378-.128l1.388-.738 2.264-1.169 1.357-.008L2.2 22.211l-.002.001-1.339 1.333c-.316.315-.49.732-.49 1.178s.174.863.49 1.179c.325.323.752.485 1.179.485s.854-.162 1.18-.485l1.314-1.309 1.741-1.3.901.897-1.762 1.754-.002.001-1.339 1.333c-.316.315-.49.732-.49 1.178s.174.863.49 1.179c.325.323.753.485 1.18.485s.855-.162 1.18-.485l3.482-3.467.001-.002 1.01-1-.004-.004c.006-.006.015-.009.022-.015l5.166-5.658 3.471.494a.52.52 0 0 0 .262-.033c.018-.006.033-.015.05-.023.019-.01.039-.015.058-.027l3.213-2.133c.012-.008.018-.021.029-.029.013-.01.029-.014.041-.026l1.271-1.191c.662-.62.753-1.635.212-2.362zM2.13 17.77a.714.714 0 0 1-.558.052.717.717 0 0 1-.213-1.26l1.314-.632.449 1.312-.992.527zm3.498-1.828-1.548.8-.439-1.283 2.027-1.001-.04 1.484zm15.099-6.62a5.79 5.79 0 0 1-.599 2.559l-4.181-1.899a1.863 1.863 0 0 0-.788-1.388l1.464-4.86c2.378.756 4.105 2.974 4.105 5.588zm-11.789 0c0-3.235 2.644-5.867 5.894-5.867.253 0 .5.021.745.052l-1.432 4.754c-.019-.001-.037-.006-.057-.006-1.033 0-1.873.837-1.873 1.867s.84 1.867 1.873 1.867c.694 0 1.294-.383 1.618-.945l3.862 1.755a5.894 5.894 0 0 1-4.737 2.39c-3.25 0-5.894-2.632-5.894-5.867zm5.956.8c0 .441-.362.8-.806.8s-.806-.359-.806-.8c0-.441.362-.8.806-.8s.806.359.806.8zM2.465 25.146a.608.608 0 0 1-.854.001.592.592 0 0 1 0-.844l.962-.958.851.848-.959.955zm3.214 3.734a.608.608 0 0 1-.855.001.592.592 0 0 1 0-.844l.963-.959.852.848-.96.955zm3.481-3.469-.002.001-1.765 1.76-.852-.848 1.763-1.755.002-.001c.04-.04.065-.088.09-.135.007-.014.02-.026.026-.04.017-.041.019-.085.026-.129.003-.025.014-.047.014-.073 0-.036-.013-.07-.02-.106-.006-.032-.006-.065-.019-.095a.55.55 0 0 0-.091-.138c-.01-.012-.014-.027-.025-.038h-.001l-.001-.002-1.607-1.6c-.017-.017-.039-.024-.058-.038a.507.507 0 0 0-.087-.058.515.515 0 0 0-.093-.033.507.507 0 0 0-.103-.02.5.5 0 0 0-.095.005.53.53 0 0 0-.104.02.477.477 0 0 0-.094.045c-.02.011-.042.015-.061.029L4.23 23.486l-.901-.897 2.399-2.386 4.361 4.289-.928.919zm6.819-7.017c-.015-.002-.03.004-.045.003a.556.556 0 0 0-.3.075.492.492 0 0 0-.083.061c-.013.011-.028.017-.04.029l-4.698 5.146-4.328-4.257 2.833-2.818a.534.534 0 0 0-.379-.911v-.001l-2.219.013.028-1.607 3.104.027a6.947 6.947 0 0 0 4.981 2.101c.437 0 .864-.045 1.279-.123.04.032.079.065.13.085l2.41.96.152.758.178.885-3.003-.427zm4.041.178-.313-1.558 1.446-1.08.947 1.257-2.08 1.381zm3.754-2.831-.838.785-.931-1.236.831-.637a.735.735 0 0 1 .543-.143.718.718 0 0 1 .48.284.713.713 0 0 1-.085.947z" />
            <path
                d="m13.602 18.544-2.143-2.133a.534.534 0 0 0-.753 0l-2.142 2.133a.537.537 0 0 0 0 .756l2.142 2.133a.536.536 0 0 0 .753 0l2.143-2.133a.535.535 0 0 0 0-.756zm-2.519 1.759-1.387-1.381 1.387-1.381 1.387 1.381-1.387 1.381zM17.164 5.071l-.258 1.036c.071.018 1.738.452 1.738 2.149h1.067c0-2.017-1.666-2.965-2.547-3.185zM19.711 9.322h-1.067v1.067h1.067V9.322z" />
        </symbol>
        <symbol id="icon-diagram" viewBox="0 0 32 32">
            <path fill="#2196f3"
                d="M14.925 14.965h1.066v4.798h-1.066v-4.797zM19.19 17.097h1.066v2.665H19.19v-2.665zM10.661 18.696h1.066v1.066h-1.066v-1.066zM7.463 18.163h1.066v1.599H7.463v-1.599z"
                style="fill:var(--color2, #2196f3)" />
            <path
                d="M1.599 28.291h25.587a1.6 1.6 0 0 0 1.599-1.599V24.56a1.6 1.6 0 0 0-1.599-1.599h-.533V9.668L29.681 6.8a1.608 1.608 0 1 0-.746-.763L26.654 8.2V6.97a1.6 1.6 0 0 0-1.599-1.599H3.733A1.6 1.6 0 0 0 2.134 6.97v15.992h-.533a1.6 1.6 0 0 0-1.599 1.599v2.132a1.6 1.6 0 0 0 1.599 1.599zM30.384 4.837a.533.533 0 1 1 0 1.067.533.533 0 0 1 0-1.067zM3.198 6.969c0-.294.239-.533.533-.533h21.322c.294 0 .533.239.533.533v2.239l-1.066 1.013V8.035a.533.533 0 0 0-.533-.533H4.797a.533.533 0 0 0-.533.533v13.326c0 .294.239.533.533.533h19.19a.533.533 0 0 0 .533-.533v-9.674l1.066-1.01v12.284H3.198V6.969zm4.798 6.929a1.598 1.598 0 1 0 1.107 2.749l1.853.93a.532.532 0 0 0 .636-.123l3.939-4.431 3.872 2.901a.533.533 0 0 0 .686-.039l3.365-3.188v8.131H5.33V8.568h18.124v2.66L19.683 14.8l-3.904-2.927a.533.533 0 0 0-.718.072l-3.993 4.493-1.493-.746c.011-.064.018-.129.02-.193A1.6 1.6 0 0 0 7.996 13.9zm.533 1.6a.533.533 0 1 1-1.067 0 .533.533 0 0 1 1.067 0zm3.198 8.528h5.331v.533a.533.533 0 0 1-.533.533h-4.264a.533.533 0 0 1-.533-.533v-.533zm-10.661.534c0-.294.239-.533.533-.533h9.062v.533a1.6 1.6 0 0 0 1.599 1.599h4.264a1.6 1.6 0 0 0 1.599-1.599v-.533h9.062c.294 0 .533.239.533.533v2.132a.533.533 0 0 1-.533.533H1.598a.533.533 0 0 1-.533-.533V24.56z" />
        </symbol>
        <symbol id="icon-clock" viewBox="0 0 32 32">
            <path
                d="M31.297 15.301C31.295 6.849 24.442-.002 15.989 0S.686 6.855.688 15.308a15.304 15.304 0 0 0 10.649 14.576.662.662 0 0 0 .529-.065.637.637 0 0 0 .283-.356l3.865-12.25a1.912 1.912 0 1 0-.84-3.635l-5.106-5.107a.637.637 0 0 0-.902.902l5.103 5.109a1.876 1.876 0 0 0 .536 2.309l-3.683 11.673C3.844 25.783.118 17.71 2.799 10.432S13.553-.572 20.831 2.109s11.004 10.754 8.323 18.032a14.042 14.042 0 0 1-7.462 7.973l-.398-1.874a.638.638 0 0 0-1.048-.344l-3.837 3.426a.637.637 0 0 0 .231 1.084l4.899 1.563a.638.638 0 0 0 .819-.74l-.391-1.839a15.255 15.255 0 0 0 9.329-14.089zm-15.305-.637a.638.638 0 1 1 0 1.277.638.638 0 0 1 0-1.277zm2.101 14.864 2.184-1.948.603 2.84-2.787-.892z" />
            <path fill="#2196f3"
                d="M15.354 3.185V4.46a.638.638 0 1 0 1.276 0V3.185a.638.638 0 0 0-1.276 0zM3.876 14.664a.638.638 0 0 0 0 1.276h1.275a.638.638 0 1 0 0-1.276H3.876zM28.108 15.939a.638.638 0 1 0 0-1.276h-1.275a.638.638 0 0 0 0 1.276h1.275z"
                style="fill:var(--color2, #2196f3)" />
        </symbol>
    </defs>
</svg>